<svg xmlns="http://www.w3.org/2000/svg" width="28" height="28" viewBox="0 0 28 28">
  <g id="cate_icon_sherlockn" transform="translate(7 -62.138)">
    <g id="그룹_5636" data-name="그룹 5636">
      <rect id="사각형_1263" data-name="사각형 1263" width="28" height="28" rx="5" transform="translate(-7 62.138)" fill="#245eb9"/>
    </g>
    <path id="Monitor" d="M979.687,791.789a.468.468,0,1,1,0-.937h3.344v-2.875h.937v2.875h3.344a.468.468,0,0,1,0,.937Zm-2.75-3.966a.94.94,0,0,1-.938-.937v-7.971a.941.941,0,0,1,.938-.938h13.125a.941.941,0,0,1,.938.938v7.971a.94.94,0,0,1-.938.937Zm0-.937h13.125v-1.972H976.937Zm13.125-2.909v-5.062H976.937v5.063Z" transform="translate(-976.315 -708.838)" fill="#fff" stroke="#fff" stroke-width="0.2"/>
  </g>
</svg>
