<svg xmlns="http://www.w3.org/2000/svg" width="28" height="28" viewBox="0 0 28 28">
  <g id="그룹_5637" data-name="그룹 5637" transform="translate(-1446 -425)">
    <rect id="사각형_1264" data-name="사각형 1264" width="28" height="28" rx="5" transform="translate(1446 425)" fill="#ff8a16"/>
    <g id="cate_icon_newworker" transform="translate(1449 432)">
      <path id="cate_icon_newworker-2" data-name="cate_icon_newworker" d="M14.1,12.668h0a.723.723,0,0,1-.708-.62.746.746,0,0,1-.008-.111v-3a.424.424,0,0,0-.418-.427h-.234a.422.422,0,0,0-.418.424V10a1.279,1.279,0,0,1-1.258,1.291h-.148A1.272,1.272,0,0,1,9.647,10V8.116a.425.425,0,0,0-.42-.428h-.21a.42.42,0,0,0-.418.424V9.979a1.276,1.276,0,0,1-1.317,1.288q-.054,0-.108-.009A1.308,1.308,0,0,1,6.08,9.938V9.913a.435.435,0,0,0-.011-.1.419.419,0,0,0-.408-.329H5.6a.419.419,0,0,0-.414.425V11.8l0,.14a.722.722,0,0,1-.712.726H4.426l-.138-.005c-.044,0-.091-.007-.135-.011l-.018,0a3.975,3.975,0,0,1-.5-.075,4.39,4.39,0,0,1-1.11-.4A4.706,4.706,0,0,1,4.157,3.327,4.6,4.6,0,0,1,8.537,0L8.7,0a4.558,4.558,0,0,1,3.888,2.5c.1-.009.194-.014.291-.014a3.558,3.558,0,0,1,1.764.466q.07.039.138.081a3.649,3.649,0,0,1,1.113,1.079,3.825,3.825,0,0,1,.541,1.238A3.734,3.734,0,0,1,19,8.934q0,.1-.006.2a3.751,3.751,0,0,1-3.741,3.529Zm1.247-.86a2.885,2.885,0,0,0,.342-5.739A2.9,2.9,0,0,0,15.2,4.6a2.8,2.8,0,0,0-.962-.893,2.758,2.758,0,0,0-2.16-.239,3.715,3.715,0,0,0-7.241.708l-.023,0c-.087-.006-.174-.009-.26-.009A3.676,3.676,0,0,0,1.065,6.655,4.172,4.172,0,0,0,.841,8,3.831,3.831,0,0,0,2.9,11.4a3.679,3.679,0,0,0,.908.326,3.764,3.764,0,0,0,.525.069V9.913A1.276,1.276,0,0,1,5.6,8.626h.068A1.272,1.272,0,0,1,6.921,9.88q0,.017,0,.033v.066a.422.422,0,0,0,.49.422.444.444,0,0,0,.346-.446V8.113A1.274,1.274,0,0,1,9.017,6.826h.212l.065,0a1.275,1.275,0,0,1,1.194,1.285V10a.422.422,0,0,0,.418.425h.148A.422.422,0,0,0,11.47,10V8.937A1.274,1.274,0,0,1,12.729,7.65h.234a1.277,1.277,0,0,1,1.261,1.29v2.867ZM5,7.053a.711.711,0,1,1,.712.739A.724.724,0,0,1,5,7.053Zm7.245-.86a.711.711,0,1,1,.709.735A.724.724,0,0,1,12.249,6.194ZM8.473,4.971a.711.711,0,1,1,.709.738A.721.721,0,0,1,8.473,4.971Z" transform="translate(1.5 0.667)" fill="#fff" stroke="#fff" stroke-miterlimit="10" stroke-width="0.4"/>
    </g>
  </g>
</svg>
