<svg xmlns="http://www.w3.org/2000/svg" width="37.007" height="29.993" viewBox="0 0 37.007 29.993"><g transform="translate(-596.499 -743.703)"><rect width="21.111" height="7.246" transform="translate(600.938 765.945)" fill="none" stroke="#272727" stroke-linecap="round" stroke-linejoin="round" stroke-width="1.008"/><rect width="21.111" height="7.246" transform="translate(597.003 758.699)" fill="none" stroke="#272727" stroke-linecap="round" stroke-linejoin="round" stroke-width="1.008"/><rect width="21.111" height="7.246" transform="translate(600.938 751.453)" fill="none" stroke="#272727" stroke-linecap="round" stroke-linejoin="round" stroke-width="1.008"/><rect width="21.111" height="7.246" transform="translate(597.003 744.207)" fill="none" stroke="#272727" stroke-linecap="round" stroke-linejoin="round" stroke-width="1.008"/><ellipse cx="10.953" cy="11.106" rx="10.953" ry="11.106" transform="translate(611.096 750.98)" fill="#fff" stroke="#ff3c3c" stroke-linecap="round" stroke-linejoin="round" stroke-width="1.008"/><path d="M629.191,760.094h-1.585l.764-3.22h-1.685l-.7,3.22H623.8l-.783-3.22h-1.686l-.773,3.22h-2.176l-.69-3.22h-1.722l.745,3.22h-1.813v1.616h2.187l1.4,6.061h1.672l1.441-6.061h1.129l1.4,6.061h1.647l1.437-6.061h1.97Zm-9.389,3.167c-.025.128-.055.256-.088.38s-.064.255-.09.392-.069.279-.106.422-.075.3-.109.45c-.033-.126-.065-.259-.1-.4s-.061-.274-.094-.411-.064-.27-.09-.4a3.226,3.226,0,0,1-.05-.36l-.348-1.629h1.443Zm2.19-3.167,0-.019c.035-.138.067-.267.1-.393s.06-.251.1-.38l.181.792Zm3.26,3.372c-.026.112-.05.228-.075.347s-.052.245-.076.372-.051.242-.076.367-.052.24-.077.351c-.042-.179-.08-.344-.113-.5s-.068-.291-.1-.412-.049-.227-.07-.322-.036-.172-.044-.23l-.421-1.732h1.436Z" fill="#ff3c3c"/></g></svg>