<svg xmlns="http://www.w3.org/2000/svg" width="35" height="36.996" viewBox="0 0 35 36.996"><g transform="translate(-601.229 -129.293)"><rect width="4.455" height="10.445" transform="translate(602.82 155.337)" fill="none" stroke="#272727" stroke-linecap="round" stroke-linejoin="round" stroke-width="1.013"/><rect width="4.455" height="16.06" transform="translate(612.153 149.722)" fill="none" stroke="#272727" stroke-linecap="round" stroke-linejoin="round" stroke-width="1.013"/><rect width="4.455" height="21.891" transform="translate(621.487 143.891)" fill="none" stroke="#272727" stroke-linecap="round" stroke-linejoin="round" stroke-width="1.013"/><rect width="4.455" height="27.937" transform="translate(630.821 137.845)" fill="none" stroke="#ff3c3c" stroke-linecap="round" stroke-linejoin="round" stroke-width="1.013"/><path d="M625.305,137.444a1.591,1.591,0,1,1-1.591-1.619A1.6,1.6,0,0,1,625.305,137.444Z" fill="#ff3c3c"/><path d="M604.411,150.216a1.591,1.591,0,1,1-1.591-1.619A1.606,1.606,0,0,1,604.411,150.216Z" fill="#ff3c3c"/><ellipse cx="1.591" cy="1.619" rx="1.591" ry="1.619" transform="translate(612.79 141.857)" fill="#ff3c3c"/><path d="M636.229,130.912a1.591,1.591,0,1,1-1.591-1.619A1.6,1.6,0,0,1,636.229,130.912Z" fill="#ff3c3c"/><g fill="none" stroke-linecap="round" stroke-linejoin="round"><path d="M602.232,151.5l-.479-.824,11.036-6.639,11.036-6.894,10.952-6.958.5.813-10.955,6.96-11.049,6.9Z" stroke="none"/><path d="M 602.231689453125 151.5037384033203 L 601.7531127929688 150.6792602539062 L 612.7886962890625 144.0406799316406 L 623.8245849609375 137.1466064453125 L 634.7769775390625 130.1885681152344 L 635.275146484375 131.0012664794922 L 624.3197631835938 137.9612121582031 L 613.270751953125 144.8631286621094 L 602.231689453125 151.5037384033203 Z" stroke="none" fill="#ff3c3c"/></g></g></svg>