<svg xmlns="http://www.w3.org/2000/svg" width="50.007" height="33.993" viewBox="0 0 50.007 33.993"><g transform="translate(-174.376 -1216.829)"><path d="M189.925,1223.182a5.762,5.762,0,1,1-5.762-5.845A5.8,5.8,0,0,1,189.925,1223.182Z" fill="none" stroke="#272727" stroke-linecap="round" stroke-linejoin="round" stroke-width="1.018"/><path d="M220.357,1223.182a5.762,5.762,0,1,1-5.762-5.845A5.8,5.8,0,0,1,220.357,1223.182Z" fill="none" stroke="#272727" stroke-linecap="round" stroke-linejoin="round" stroke-width="1.018"/><path d="M192.711,1238.345a9.261,9.261,0,0,0-17.826,3.669v5.432h13.744" fill="none" stroke="#272727" stroke-linecap="round" stroke-linejoin="round" stroke-width="1.018"/><path d="M210.131,1247.447h13.743v-5.432a9.261,9.261,0,0,0-17.826-3.669" fill="none" stroke="#272727" stroke-linecap="round" stroke-linejoin="round" stroke-width="1.018"/><path d="M205.14,1226.047a5.761,5.761,0,1,1-5.759-5.843A5.8,5.8,0,0,1,205.14,1226.047Z" fill="none" stroke="#ff3c3c" stroke-linecap="round" stroke-linejoin="round" stroke-width="1.018"/><path d="M206.048,1238.345a9.169,9.169,0,0,0-13.337,0c-1.614,1.693-2.61,3.076-2.61,5.617v6.35H208.66v-6.35C208.66,1241.422,207.662,1240.039,206.048,1238.345Z" fill="none" stroke="#272727" stroke-linecap="round" stroke-linejoin="round" stroke-width="1.018"/></g></svg>