<svg xmlns="http://www.w3.org/2000/svg" viewBox="0 0 24 24"><defs><style>.cls-1{fill:#1da1f3;}.cls-2{fill:#fff;}</style></defs><g id="Layer_2" data-name="Layer 2"><g id="Layer_1-2" data-name="Layer 1"><circle class="cls-1" cx="12" cy="12" r="12"/><path class="cls-2" d="M10,17.56a7.13,7.13,0,0,0,7.19-7.18c0-.11,0-.22,0-.33a5.19,5.19,0,0,0,1.26-1.3A5,5,0,0,1,17,9.14a2.52,2.52,0,0,0,1.11-1.39,5,5,0,0,1-1.6.61,2.55,2.55,0,0,0-1.85-.8,2.52,2.52,0,0,0-2.52,2.53,2.69,2.69,0,0,0,.06.57A7.12,7.12,0,0,1,7,8a2.55,2.55,0,0,0,.78,3.38,2.59,2.59,0,0,1-1.14-.32v0a2.53,2.53,0,0,0,2,2.48,2.84,2.84,0,0,1-.66.09,2.52,2.52,0,0,1-.48,0,2.53,2.53,0,0,0,2.36,1.75,5,5,0,0,1-3.13,1.08,6.08,6.08,0,0,1-.61,0A7.13,7.13,0,0,0,10,17.56"/></g></g></svg>