<svg width="8" height="8" viewBox="0 0 8 8" fill="none" xmlns="http://www.w3.org/2000/svg">
<path d="M0.666646 3.00004H1.66665V7.00004H0.666646C0.578241 7.00004 0.493456 6.96492 0.430944 6.90241C0.368432 6.83989 0.333313 6.75511 0.333313 6.6667V3.33337C0.333313 3.24497 0.368432 3.16018 0.430944 3.09767C0.493456 3.03516 0.578241 3.00004 0.666646 3.00004ZM2.43098 2.56904L4.56431 0.435704C4.59267 0.407268 4.63033 0.390026 4.67039 0.387148C4.71044 0.384269 4.75018 0.395948 4.78231 0.420037L5.06665 0.633371C5.14561 0.692652 5.20526 0.773988 5.23806 0.867122C5.27087 0.960257 5.27536 1.06102 5.25098 1.1567L4.86665 2.6667H6.99998C7.17679 2.6667 7.34636 2.73694 7.47138 2.86197C7.59641 2.98699 7.66665 3.15656 7.66665 3.33337V4.0347C7.66674 4.12182 7.64975 4.20812 7.61665 4.2887L6.58498 6.7937C6.55981 6.85478 6.51707 6.907 6.46217 6.94373C6.40727 6.98047 6.3427 7.00007 6.27665 7.00004H2.66665C2.57824 7.00004 2.49346 6.96492 2.43094 6.90241C2.36843 6.83989 2.33331 6.75511 2.33331 6.6667V2.8047C2.33333 2.71631 2.36846 2.63154 2.43098 2.56904Z" fill="white"/>
</svg>
