<svg width="16" height="16" viewBox="0 0 16 16" fill="none" xmlns="http://www.w3.org/2000/svg">
<g clip-path="url(#clip0_4101_749)">
<path fill-rule="evenodd" clip-rule="evenodd" d="M2.99847 13.0005C2.99898 13.0005 2.9995 13.0005 3.00001 13.0005H12.1163L13.745 14.6298L14.6294 13.7461L2.25501 1.37109L1.37064 2.25547L3.56189 4.44609C3.20251 5.13547 3.00001 5.91922 3.00001 6.75047V11.7505H1.75001V13.0005H2.99847ZM10.8663 11.7505L4.50501 5.38922C4.33602 5.82314 4.24954 6.2848 4.25001 6.75047V11.7505H10.8663ZM11.75 9.11672L13 10.3667V6.75047C13 5.84531 12.7543 4.95712 12.2891 4.18065C11.8239 3.40418 11.1567 2.76855 10.3586 2.34158C9.56043 1.9146 8.66137 1.7123 7.75727 1.75624C6.85318 1.80018 5.97797 2.08873 5.22501 2.59109L6.13126 3.49859C6.70148 3.17084 7.34788 2.99882 8.00559 2.99979C8.6633 3.00077 9.30918 3.17472 9.87843 3.50417C10.4477 3.83362 10.9203 4.307 11.2488 4.87679C11.5773 5.44659 11.7501 6.09276 11.75 6.75047V9.11672ZM9.10487 14.7303C9.39789 14.4373 9.56251 14.0399 9.56251 13.6255H6.43751C6.43751 14.0399 6.60213 14.4373 6.89516 14.7303C7.18818 15.0233 7.58561 15.188 8.00001 15.188C8.41441 15.188 8.81184 15.0233 9.10487 14.7303Z" fill="#BBBBBB"/>
</g>
<defs>
<clipPath id="clip0_4101_749">
<rect width="15" height="15" fill="white" transform="translate(0.5 0.5)"/>
</clipPath>
</defs>
</svg>
