<svg width="128" height="33" viewBox="0 0 128 33" fill="none" xmlns="http://www.w3.org/2000/svg">
<g clip-path="url(#clip0_1765_7017)">
<path d="M54.285 14.5436H52.3993C52.3403 14.5436 52.2814 14.52 52.2343 14.4729C52.1871 14.4257 52.1636 14.3668 52.1636 14.3079V8.48571C52.1636 8.42679 52.14 8.36786 52.0928 8.32071C52.0457 8.27357 51.9868 8.25 51.9278 8.25H50.2425C50.1836 8.25 50.1246 8.27357 50.0775 8.32071C50.0303 8.36786 50.0068 8.42679 50.0068 8.48571V24.5143C50.0068 24.5732 50.0303 24.6321 50.0775 24.6793C50.1246 24.7264 50.1836 24.75 50.2425 24.75H51.9396C51.9986 24.75 52.0575 24.7264 52.1046 24.6793C52.1518 24.6321 52.1753 24.5732 52.1753 24.5143V16.83C52.1753 16.7711 52.1989 16.7121 52.2461 16.665C52.2932 16.6179 52.3521 16.5943 52.4111 16.5943H54.285C54.3439 16.5943 54.4028 16.5707 54.45 16.5236C54.4971 16.4764 54.5207 16.4175 54.5207 16.3586V14.7793C54.5207 14.7204 54.4971 14.6614 54.45 14.6143C54.4028 14.5789 54.3439 14.5436 54.285 14.5436Z" fill="#333333"/>
<path d="M70.1958 22.1218H64.5387C64.4798 22.1218 64.4208 22.0982 64.3737 22.0511C64.3265 22.0039 64.303 21.945 64.303 21.8861V18.1854C64.303 18.1264 64.2794 18.0675 64.2323 18.0204C64.1851 17.9732 64.1262 17.9496 64.0673 17.9496H62.3819C62.323 17.9496 62.264 17.9732 62.2169 18.0204C62.1698 18.0675 62.1462 18.1264 62.1462 18.1854V21.9096C62.1462 21.9686 62.1226 22.0275 62.0755 22.0746C62.0283 22.1218 61.9694 22.1454 61.9105 22.1454H56.0648C56.0058 22.1454 55.9469 22.1689 55.8998 22.2161C55.8526 22.2632 55.829 22.3221 55.829 22.3811V23.8661C55.829 23.925 55.8526 23.9839 55.8998 24.0311C55.9469 24.0782 56.0058 24.1018 56.0648 24.1018H70.184C70.243 24.1018 70.3019 24.0782 70.349 24.0311C70.3962 23.9839 70.4198 23.925 70.4198 23.8661V22.3575C70.4198 22.2986 70.3962 22.2396 70.349 22.1925C70.3019 22.1454 70.2548 22.1218 70.1958 22.1218Z" fill="#333333"/>
<path d="M80.9561 12.8582H83.3721C83.431 12.8582 83.49 12.8818 83.5371 12.9289C83.5843 12.9761 83.6078 13.035 83.6078 13.0939V16.1229C83.6078 16.1818 83.6314 16.2407 83.6785 16.2879C83.7257 16.335 83.7846 16.3586 83.8435 16.3586H85.4935C85.5525 16.3586 85.6114 16.335 85.6585 16.2879C85.7057 16.2407 85.7292 16.1818 85.7292 16.1229V8.48571C85.7292 8.42679 85.7057 8.36786 85.6585 8.32071C85.6114 8.27357 85.5407 8.25 85.4817 8.25H83.8318C83.7728 8.25 83.7139 8.27357 83.6668 8.32071C83.6196 8.36786 83.596 8.42679 83.596 8.48571V10.7957C83.596 10.8546 83.5725 10.9136 83.5253 10.9607C83.4782 11.0079 83.4193 11.0314 83.3603 11.0314H80.9443C80.8853 11.0314 80.8264 11.055 80.7793 11.1021C80.7321 11.1493 80.7086 11.2082 80.7086 11.2671V12.6225C80.7086 12.6814 80.7321 12.7404 80.7793 12.7875C80.8264 12.8346 80.8971 12.8582 80.9561 12.8582Z" fill="#333333"/>
<path d="M118.765 18.2443H110.102C109.855 18.2443 109.607 18.3385 109.43 18.5153C109.254 18.6921 109.159 18.9278 109.159 19.1871V23.6893C109.159 23.9368 109.254 24.1843 109.43 24.361C109.607 24.5378 109.843 24.6321 110.102 24.6321H115.641C116.738 24.6321 117.563 23.8307 117.598 22.8171L117.621 24.3964C117.621 24.4553 117.645 24.5143 117.692 24.5614C117.739 24.6085 117.798 24.6321 117.857 24.6321H118.765C119.012 24.6321 119.26 24.5378 119.436 24.361C119.613 24.1843 119.708 23.9485 119.708 23.6893V19.1871C119.708 18.9396 119.613 18.6921 119.436 18.5153C119.248 18.3385 119.012 18.2443 118.765 18.2443ZM117.598 22.8171H111.481C111.422 22.8171 111.363 22.7935 111.316 22.7464C111.269 22.6993 111.245 22.6403 111.245 22.5814V20.295C111.245 20.236 111.269 20.1771 111.316 20.13C111.363 20.0828 111.422 20.0593 111.481 20.0593H117.362C117.421 20.0593 117.48 20.0828 117.527 20.13C117.574 20.1771 117.598 20.236 117.598 20.295V22.8171Z" fill="#333333"/>
<path d="M114.416 11.5854V11.55C114.416 11.22 114.416 10.1947 114.416 9.4168C114.416 9.1693 114.321 8.9218 114.145 8.74501C113.968 8.56822 113.732 8.47394 113.473 8.47394H106.896C106.837 8.47394 106.779 8.49751 106.731 8.54465C106.684 8.5918 106.661 8.65072 106.661 8.70965V10.0179C106.661 10.0768 106.684 10.1357 106.731 10.1829C106.779 10.23 106.837 10.2536 106.896 10.2536H112.2C112.259 10.2536 112.318 10.2772 112.365 10.3243C112.412 10.3714 112.436 10.4304 112.436 10.4893V11.385C112.436 11.4439 112.412 11.5029 112.365 11.55C112.318 11.5972 112.259 11.6207 112.2 11.6207H106.92C106.861 11.6207 106.802 11.6443 106.755 11.6914C106.708 11.7386 106.684 11.7975 106.684 11.8564V13.2589C106.684 13.3179 106.708 13.3768 106.755 13.4239C106.802 13.4711 106.861 13.4947 106.92 13.4947H109.43C110.809 13.4947 111.446 13.3768 111.776 13.2943C111.787 13.2943 111.799 13.2943 111.811 13.2943C111.823 13.2943 111.835 13.3061 111.835 13.3179C111.835 13.3297 111.846 13.3414 111.835 13.3532C111.835 13.365 111.823 13.3768 111.823 13.3886C111.611 13.6125 111.363 13.8011 111.092 13.9543C110.137 14.52 108.747 15.18 106.472 16.1229L106.449 16.1347C106.437 16.1464 106.413 16.1582 106.401 16.17C106.366 16.2054 106.342 16.2643 106.342 16.3114V16.3468C106.342 16.3704 106.354 16.4057 106.366 16.4293C106.366 16.4293 106.814 17.4547 106.979 17.7847C107.003 17.8318 107.05 17.8789 107.097 17.9025C107.12 17.9143 107.156 17.9261 107.179 17.9261C107.203 17.9261 107.238 17.9143 107.262 17.9025C109.501 16.9597 111.186 16.1347 112.436 15.4275C114.651 14.1782 114.416 11.5854 114.416 11.5854Z" fill="#333333"/>
<path d="M119.601 8.25H117.963C117.904 8.25 117.845 8.27357 117.798 8.32071C117.751 8.36786 117.728 8.42679 117.728 8.48571V11.3261C117.728 11.385 117.704 11.4439 117.657 11.4911C117.61 11.5382 117.551 11.5618 117.492 11.5618H114.416L114.486 11.9389C114.663 12.7993 115.429 13.3768 116.408 13.3768H117.492C117.551 13.3768 117.61 13.4004 117.657 13.4475C117.704 13.4946 117.728 13.5536 117.728 13.6125V16.7475C117.728 16.8064 117.751 16.8654 117.798 16.9125C117.845 16.9596 117.904 16.9832 117.963 16.9832H119.601C119.66 16.9832 119.719 16.9596 119.766 16.9125C119.814 16.8654 119.837 16.8064 119.837 16.7475V8.48571C119.837 8.42679 119.814 8.36786 119.766 8.32071C119.719 8.27357 119.649 8.25 119.601 8.25Z" fill="#333333"/>
<path d="M104.186 11.6561H102.418C102.371 11.6561 102.335 11.6443 102.288 11.6325C102.241 11.6207 102.206 11.5971 102.17 11.5618C102.135 11.5264 102.111 11.4911 102.088 11.4439C102.064 11.3968 102.064 11.3614 102.064 11.3143V8.48571C102.064 8.42679 102.041 8.36786 101.994 8.32071C101.946 8.27357 101.888 8.25 101.829 8.25H100.19C100.131 8.25 100.073 8.27357 100.025 8.32071C99.9782 8.36786 99.9547 8.42679 99.9547 8.48571V17.82C99.9547 17.8789 99.9782 17.9379 100.025 17.985C100.073 18.0321 100.131 18.0557 100.19 18.0557H101.829C101.888 18.0557 101.946 18.0321 101.994 17.985C102.041 17.9379 102.064 17.8789 102.064 17.82V13.8129C102.064 13.7893 102.064 13.7539 102.076 13.7304C102.088 13.6714 102.123 13.6125 102.17 13.5654C102.206 13.53 102.241 13.5064 102.288 13.4946C102.335 13.4829 102.371 13.4711 102.418 13.4711H104.186C104.245 13.4711 104.304 13.4475 104.351 13.4004C104.398 13.3532 104.421 13.2943 104.421 13.2354V11.8918C104.421 11.8329 104.398 11.7739 104.351 11.7268C104.304 11.6796 104.245 11.6561 104.186 11.6561Z" fill="#333333"/>
<path d="M85.4936 22.9114H77.3496C77.3025 22.9114 77.2671 22.8997 77.22 22.8879C77.1846 22.8761 77.1375 22.8525 77.1139 22.8172C77.055 22.7582 77.0196 22.6639 77.0196 22.5814V22.2397C77.0196 22.1925 77.0314 22.1572 77.0432 22.11C77.055 22.0747 77.0786 22.0393 77.1139 22.0039C77.1728 21.945 77.2671 21.9097 77.3496 21.9097H84.7628C85.0103 21.9097 85.2578 21.8154 85.4346 21.6386C85.6114 21.4618 85.7057 21.2261 85.7057 20.9668V18.3857C85.7057 18.1382 85.6114 17.8907 85.4346 17.7139C85.2578 17.5372 85.0221 17.4429 84.7628 17.4429H75.3578C75.2989 17.4429 75.24 17.4664 75.1928 17.5136C75.1457 17.5607 75.1221 17.6197 75.1221 17.6786V18.9397C75.1221 18.9986 75.1457 19.0575 75.1928 19.1047C75.24 19.1518 75.2989 19.1754 75.3578 19.1754H83.5018C83.5961 19.1754 83.6786 19.2107 83.7493 19.2814C83.82 19.3522 83.8553 19.4347 83.8553 19.5289V19.9179C83.8553 19.965 83.8436 20.0004 83.8318 20.0475C83.82 20.0829 83.7964 20.13 83.7611 20.1536C83.7021 20.2125 83.6078 20.2479 83.5253 20.2479H76.0768C75.8293 20.2479 75.5818 20.3422 75.405 20.5189C75.2282 20.6957 75.1339 20.9314 75.1339 21.1907V22.7818C75.1339 23.0293 75.1811 23.2768 75.2753 23.5125C75.3696 23.7482 75.5111 23.9486 75.6878 24.1254C75.8646 24.3022 76.0768 24.4436 76.3007 24.5379C76.5364 24.6322 76.7839 24.6793 77.0314 24.6793H85.4936C85.5525 24.6793 85.6114 24.6557 85.6586 24.6086C85.7057 24.5614 85.7293 24.5025 85.7293 24.4436V23.1472C85.7293 23.1118 85.7175 23.0882 85.7057 23.0529C85.6939 23.0293 85.6821 22.9939 85.6586 22.9822C85.635 22.9586 85.6114 22.9468 85.5761 22.935C85.5643 22.9114 85.5171 22.9114 85.4936 22.9114Z" fill="#333333"/>
<path d="M92.1997 16.4411L97.6329 16.0757C97.6918 16.0757 97.7507 16.0404 97.7861 16.005C97.8214 15.9579 97.845 15.8989 97.845 15.84V14.3904C97.845 14.355 97.8332 14.3314 97.8214 14.2961C97.8097 14.2607 97.7861 14.2371 97.7625 14.2136C97.7389 14.19 97.7154 14.1782 97.68 14.1664C97.6447 14.1546 97.6211 14.1546 97.5857 14.1546L92.6829 14.5082C92.6122 14.5082 92.5297 14.4964 92.4589 14.4729C92.3882 14.4375 92.3175 14.3904 92.2704 14.3314L91.8343 13.8718C91.74 13.7893 91.6929 13.6714 91.6811 13.5536V10.5364H97.3736C97.4325 10.5364 97.4914 10.5129 97.5386 10.4657C97.5857 10.4186 97.6093 10.3596 97.6093 10.3007V8.83929C97.6093 8.78036 97.5857 8.72143 97.5386 8.67429C97.4914 8.62715 97.4325 8.60358 97.3736 8.60358H90.4436C90.1961 8.60358 89.9486 8.69786 89.7718 8.87465C89.595 9.05143 89.5007 9.28715 89.5007 9.54643V13.6479C89.5007 14.3432 89.6068 14.6614 90.0193 15.1093L90.7029 15.8754C91.1272 16.3114 91.4572 16.4411 92.1997 16.4411Z" fill="#333333"/>
<path d="M45.6225 15.7339C45.4457 15.51 45.1864 15.345 44.9036 15.286C44.6207 15.2271 44.3261 15.2507 44.0668 15.3803C43.89 15.4628 43.7368 15.5807 43.6189 15.7339C43.6189 15.7339 44.4204 14.5318 44.4439 13.6714V11.7032C44.4439 11.6443 44.4675 11.5853 44.5146 11.5382C44.5618 11.491 44.6207 11.4675 44.6796 11.4675H47.4139C47.4729 11.4675 47.5318 11.4439 47.5789 11.3968C47.6261 11.3496 47.6496 11.2907 47.6496 11.2318V9.74676C47.6496 9.68783 47.6261 9.6289 47.5789 9.58176C47.5318 9.53462 47.4729 9.51105 47.4139 9.51105H39.3525C39.2936 9.51105 39.2346 9.53462 39.1875 9.58176C39.1404 9.6289 39.1168 9.68783 39.1168 9.74676V11.2318C39.1168 11.2907 39.1404 11.3496 39.1875 11.3968C39.2346 11.4439 39.2936 11.4675 39.3525 11.4675H41.9689C42.0279 11.4675 42.0868 11.491 42.1339 11.5382C42.1811 11.5853 42.2046 11.6443 42.2046 11.7032V12.5871C42.2046 13.2353 42.1221 14.131 41.7096 14.791C40.6489 16.5353 38.1386 19.5053 38.1386 19.5053C38.1032 19.5525 38.0914 19.6232 38.0914 19.6821C38.1032 19.741 38.1268 19.8 38.1739 19.8353L39.4586 20.9078C39.4821 20.9314 39.5057 20.9432 39.5411 20.955C39.5764 20.9668 39.6 20.9668 39.6354 20.9668C39.6589 20.9668 39.6943 20.955 39.7179 20.9432C39.7414 20.9314 39.765 20.9078 39.7886 20.8843L43.0179 16.771C43.0414 16.7357 43.0768 16.7003 43.1121 16.6768C43.1475 16.6532 43.1946 16.6414 43.2418 16.6414C43.2889 16.6414 43.3361 16.6532 43.3714 16.665C43.4186 16.6885 43.4539 16.7121 43.4775 16.7475L47.0132 20.8371C47.0368 20.8607 47.0604 20.8843 47.0957 20.9078C47.1193 20.9196 47.1311 20.9196 47.1546 20.9196C47.19 20.9196 47.2136 20.9196 47.2489 20.9078C47.2725 20.896 47.2961 20.8843 47.3196 20.8607L48.5336 19.7646C48.5807 19.7293 48.6043 19.6703 48.6161 19.6114C48.6161 19.5525 48.6043 19.4935 48.5689 19.4464L45.6225 15.7339Z" fill="#333333"/>
<path d="M102.771 22.9468C102.748 22.9232 102.724 22.8996 102.701 22.8879L99.3653 20.9314C99 20.7546 98.5993 20.6603 98.1868 20.6603C97.7743 20.6603 97.3735 20.7546 97.0082 20.9314L97.185 20.7546C97.4678 20.4836 97.6093 20.2125 97.6093 19.9414V18.3386C97.6093 18.2796 97.5857 18.2207 97.5385 18.1736C97.4914 18.1264 97.4325 18.1028 97.3736 18.1028H95.5821C95.5232 18.1028 95.4643 18.1264 95.4171 18.1736C95.37 18.2207 95.3464 18.2796 95.3464 18.3386V19.1518C95.3582 19.3639 95.3111 19.5643 95.2168 19.7528C95.1107 19.9296 94.9575 20.0828 94.7807 20.2007L90.2786 22.8996C90.255 22.9114 90.2314 22.935 90.2078 22.9586C90.1843 22.9821 90.1725 23.0057 90.1725 23.0293C90.1725 23.0528 90.1725 23.1118 90.1725 23.1354C90.1725 23.1589 90.1843 23.1943 90.1961 23.2179L91.0328 24.5143C91.0682 24.5614 91.1153 24.6086 91.1743 24.6204C91.2332 24.6321 91.2921 24.6321 91.3511 24.5968C91.3511 24.5968 95.7 22.0157 96.3718 21.6032C96.4189 21.5796 96.4661 21.5561 96.5132 21.5561C96.5603 21.5561 96.6193 21.5678 96.6546 21.6032C97.3735 22.0157 101.64 24.5968 101.64 24.5968C101.652 24.5968 101.664 24.6086 101.675 24.6086C101.687 24.6086 101.711 24.6204 101.722 24.6204C101.758 24.6204 101.781 24.6204 101.817 24.6204C101.84 24.6086 101.864 24.5968 101.887 24.585C101.911 24.5614 101.923 24.5496 101.935 24.5143L102.807 23.2179C102.83 23.1943 102.842 23.1589 102.842 23.1236C102.854 23.1 102.842 23.0646 102.83 23.0411C102.807 23.0057 102.795 22.9704 102.771 22.9468Z" fill="#333333"/>
<path d="M76.6661 13.259C76.7486 13.259 76.8193 13.2826 76.8782 13.3297L80.1664 16.2997C80.19 16.3233 80.2136 16.3351 80.2489 16.3351C80.2725 16.3469 80.3078 16.3469 80.3314 16.3469C80.3668 16.3469 80.3903 16.3351 80.4139 16.3233C80.4375 16.3115 80.4611 16.288 80.4846 16.2644L81.51 15.0622C81.5336 15.0387 81.5453 15.0033 81.5571 14.9797C81.5689 14.968 81.5689 14.9444 81.5689 14.9326C81.5689 14.9208 81.5689 14.8972 81.5689 14.8855C81.5689 14.8619 81.5571 14.8265 81.5453 14.803C81.5336 14.7794 81.51 14.7558 81.4864 14.7322L79.4357 12.8819C78.7757 12.3397 77.8093 12.3515 77.1139 12.6815C77.4439 12.328 77.7739 11.9155 77.8564 11.7033C77.9389 11.4912 77.9271 11.2672 77.9271 10.6897V8.76867C77.9271 8.70974 77.9036 8.65082 77.8564 8.60367C77.8093 8.55653 77.7504 8.53296 77.6914 8.53296H76.0886C76.0296 8.53296 75.9707 8.55653 75.9236 8.60367C75.8764 8.65082 75.8529 8.70974 75.8529 8.76867V10.4422C75.8529 11.1258 75.6289 11.4205 75.1693 11.9272L71.8693 15.0033C71.8457 15.0269 71.8222 15.0505 71.8104 15.074C71.7986 15.0976 71.7868 15.133 71.7868 15.1683C71.7868 15.1919 71.7868 15.2272 71.7986 15.2508C71.8104 15.2862 71.8222 15.3097 71.8457 15.3333L72.93 16.4294C72.9418 16.4412 72.9654 16.4647 72.9772 16.4765C73.0125 16.5001 73.0597 16.5119 73.1068 16.5119C73.1539 16.5119 73.2011 16.5001 73.2364 16.4647L76.4775 13.3651C76.5129 13.3062 76.5954 13.2708 76.6661 13.259Z" fill="#333333"/>
<path d="M56.2649 17.1599C56.2649 17.1599 57.1253 18.1499 57.3845 18.4799C57.4081 18.5035 57.4199 18.527 57.4553 18.5388C57.4788 18.5506 57.5142 18.5624 57.5378 18.5624C57.5849 18.5624 57.632 18.5506 57.6792 18.527L57.7028 18.5035L62.9592 14.4138C63.0063 14.3667 63.077 14.3431 63.1478 14.3431C63.2185 14.3431 63.2892 14.3667 63.3363 14.4138L68.6753 18.5388C68.6988 18.5624 68.7224 18.5742 68.7578 18.586C68.7813 18.586 68.8167 18.586 68.8403 18.586C68.8638 18.5742 68.8874 18.5624 68.911 18.5506C68.9345 18.5388 68.9581 18.5152 68.9817 18.4917C69.241 18.1735 70.066 17.1599 70.066 17.1599C70.0778 17.1363 70.0895 17.101 70.1013 17.0774C70.1131 17.042 70.1131 17.0185 70.1131 16.9831C70.1131 16.9595 70.1131 16.9477 70.1013 16.9242C70.0895 16.9006 70.0778 16.8888 70.066 16.8652C70.0542 16.8535 70.0306 16.8299 70.0188 16.8181L65.6817 13.742C65.3517 13.4945 64.9628 13.3649 64.5503 13.3649C64.1495 13.3649 63.7606 13.6124 63.4306 13.8481L63.4188 13.8599L63.4306 13.8481C63.5367 13.7656 64.3499 13.1881 64.3499 12.4574V9.32238C64.3499 9.26346 64.3263 9.20453 64.2792 9.15738C64.232 9.11024 64.1731 9.08667 64.1142 9.08667H62.3463C62.2874 9.08667 62.2285 9.11024 62.1813 9.15738C62.1342 9.20453 62.1106 9.26346 62.1106 9.32238V11.4438C62.1106 12.2335 61.816 12.6342 61.2503 13.0938L56.312 16.8417C56.2885 16.8652 56.2649 16.8888 56.2413 16.9242C56.2295 16.9477 56.2178 16.9831 56.2178 17.0067C56.206 17.042 56.206 17.0774 56.2178 17.1127C56.2413 17.1245 56.2649 17.1481 56.2649 17.1599Z" fill="#333333"/>
</g>
<path fill-rule="evenodd" clip-rule="evenodd" d="M23.5715 11.7858H30.643V21.2144H23.5715V11.7858ZM14.143 28.2858H23.5715V21.2144H14.143H7.07153L14.143 28.2858Z" fill="#D64F00"/>
<path fill-rule="evenodd" clip-rule="evenodd" d="M14.143 4.71429C10.2419 4.71429 7.07153 7.88465 7.07153 11.7857V21.2143H14.143V11.7857H23.5715H30.643L23.5715 4.71429H14.143Z" fill="#FF6813"/>
<path fill-rule="evenodd" clip-rule="evenodd" d="M23.5715 28.2857V21.2143H30.643C30.643 25.1154 27.4726 28.2857 23.5715 28.2857Z" fill="#333333"/>
<defs>
<clipPath id="clip0_1765_7017">
<rect width="82.5" height="16.5" fill="white" transform="translate(37.7143 8.25)"/>
</clipPath>
</defs>
</svg>
