<svg width="20" height="20" viewBox="0 0 20 20" fill="none" xmlns="http://www.w3.org/2000/svg">
<path d="M10.7217 2.5L18.66 16.25C18.7331 16.3767 18.7717 16.5204 18.7717 16.6667C18.7717 16.8129 18.7332 16.9566 18.66 17.0833C18.5869 17.21 18.4817 17.3152 18.355 17.3884C18.2283 17.4615 18.0846 17.5 17.9383 17.5H2.06168C1.9154 17.5 1.7717 17.4615 1.64502 17.3884C1.51834 17.3152 1.41314 17.21 1.34 17.0833C1.26687 16.9566 1.22836 16.8129 1.22836 16.6667C1.22836 16.5204 1.26687 16.3767 1.34001 16.25L9.27834 2.5C9.35149 2.37333 9.45668 2.26814 9.58336 2.19501C9.71004 2.12188 9.85373 2.08337 10 2.08337C10.1463 2.08337 10.29 2.12188 10.4167 2.19501C10.5433 2.26814 10.6485 2.37333 10.7217 2.5ZM9.16668 13.3333V15H10.8333V13.3333H9.16668ZM9.16668 7.5V11.6667H10.8333V7.5H9.16668Z" fill="#FF6E70"/>
</svg>
