<svg width="56" height="56" viewBox="0 0 56 56" fill="none" xmlns="http://www.w3.org/2000/svg">
<path d="M0 28C0 43.464 12.536 56 28 56C43.464 56 56 43.464 56 28C56 12.536 43.464 0 28 0C12.536 0 0 12.536 0 28Z" fill="black"/>
<path d="M28.5455 16.8888C30.076 16.8888 31.9944 15.8541 33.1369 14.4745C34.1716 13.2243 34.9261 11.4782 34.9261 9.7322C34.9261 9.49508 34.9045 9.25797 34.8614 9.06396C33.1585 9.12863 31.1106 10.2064 29.882 11.6507C28.9119 12.75 28.0281 14.4745 28.0281 16.2421C28.0281 16.5008 28.0713 16.7595 28.0928 16.8457C28.2006 16.8672 28.373 16.8888 28.5455 16.8888ZM23.1565 42.9715C25.2474 42.9715 26.1743 41.5704 28.7826 41.5704C31.434 41.5704 32.016 42.9284 34.344 42.9284C36.629 42.9284 38.1595 40.8159 39.6037 38.7466C41.2204 36.3754 41.8886 34.0473 41.9317 33.9396C41.7809 33.8965 37.405 32.1073 37.405 27.0848C37.405 22.7305 40.854 20.7689 41.048 20.618C38.763 17.3415 35.2925 17.2552 34.344 17.2552C31.7789 17.2552 29.688 18.8073 28.373 18.8073C26.9503 18.8073 25.075 17.3415 22.8547 17.3415C18.6297 17.3415 14.3401 20.8335 14.3401 27.4297C14.3401 31.5253 15.9352 35.8581 17.8968 38.6603C19.5782 41.0315 21.044 42.9715 23.1565 42.9715Z" fill="white"/>
</svg>
