<svg width="56" height="56" viewBox="0 0 56 56" fill="none" xmlns="http://www.w3.org/2000/svg">
<circle cx="28" cy="28" r="27.5" fill="white" stroke="#DDDDDD"/>
<path fill-rule="evenodd" clip-rule="evenodd" d="M40.1961 28.3868C40.1961 27.4934 40.1159 26.6343 39.967 25.8096H28.1001V30.6835H34.8812C34.5891 32.2585 33.7014 33.5929 32.3669 34.4864V37.6478H36.439C38.8216 35.4543 40.1961 32.2241 40.1961 28.3868Z" fill="#4285F4"/>
<path fill-rule="evenodd" clip-rule="evenodd" d="M28.0997 40.7001C31.5017 40.7001 34.3538 39.5719 36.4386 37.6475L32.3665 34.486C31.2382 35.242 29.7949 35.6888 28.0997 35.6888C24.8179 35.6888 22.0402 33.4723 21.0494 30.4941H16.8398V33.7587C18.9131 37.8766 23.1742 40.7001 28.0997 40.7001Z" fill="#34A853"/>
<path fill-rule="evenodd" clip-rule="evenodd" d="M21.0497 30.494C20.7977 29.738 20.6545 28.9304 20.6545 28.1C20.6545 27.2695 20.7977 26.462 21.0497 25.706V22.4414H16.8402C15.9868 24.1424 15.5 26.0668 15.5 28.1C15.5 30.1331 15.9868 32.0575 16.8402 33.7585L21.0497 30.494Z" fill="#FBBC05"/>
<path fill-rule="evenodd" clip-rule="evenodd" d="M28.0997 20.5114C29.9496 20.5114 31.6105 21.1471 32.9163 22.3956L36.5302 18.7817C34.3481 16.7485 31.4959 15.5 28.0997 15.5C23.1742 15.5 18.9131 18.3235 16.8398 22.4415L21.0494 25.706C22.0402 22.7278 24.8179 20.5114 28.0997 20.5114Z" fill="#EA4335"/>
</svg>
