<svg xmlns="http://www.w3.org/2000/svg" viewBox="0 0 64 64"><defs><style>.cls-1{fill:#e76a65;}.cls-2{fill:#fff;}</style></defs><g id="Layer_2" data-name="Layer 2"><g id="Layer_1-2" data-name="Layer 1"><circle class="cls-1" cx="32" cy="32" r="32"/><path class="cls-2" d="M23.58,31.37l-3.31-3.31a7,7,0,1,1,9.9-9.91l6.23,6.24a7,7,0,0,1-3.87,11.87,1.23,1.23,0,0,1-.27,0h0a1.71,1.71,0,0,1-1.37-2.72A1.66,1.66,0,0,1,32,32.88a3.54,3.54,0,0,0,2-1,3.59,3.59,0,0,0,1-2.54,3.55,3.55,0,0,0-1-2.53l-6.24-6.24a3.68,3.68,0,0,0-5.07,0,3.59,3.59,0,0,0,0,5.07L26,29a1.71,1.71,0,0,1-2.41,2.42ZM43.73,45.85a7,7,0,0,1-9.9,0L27.6,39.61a7,7,0,0,1,3.87-11.87,1.69,1.69,0,0,1,2,1.43,1.7,1.7,0,0,1-.31,1.27,1.66,1.66,0,0,1-1.11.68,3.54,3.54,0,0,0-2,1,3.59,3.59,0,0,0-1,2.54,3.55,3.55,0,0,0,1,2.53l6.24,6.24a3.68,3.68,0,0,0,5.07,0,3.59,3.59,0,0,0,0-5.07L38,35.05a1.71,1.71,0,0,1,2.41-2.42l3.31,3.31a7,7,0,0,1,0,9.91Z"/><path class="cls-2" d="M40.42,32.63A1.71,1.71,0,0,0,38,35.05l3.31,3.31a3.59,3.59,0,0,1,0,5.07,3.68,3.68,0,0,1-5.07,0L30,37.19a3.55,3.55,0,0,1-1-2.53,3.59,3.59,0,0,1,1-2.54,3.54,3.54,0,0,1,2-1,1.66,1.66,0,0,0,1.11-.68,1.7,1.7,0,0,0,.31-1.27,1.69,1.69,0,0,0-2-1.43A7,7,0,0,0,27.6,39.61l6.23,6.24a7,7,0,1,0,9.9-9.91Z"/><path class="cls-2" d="M26,29l-3.31-3.31a3.59,3.59,0,0,1,0-5.07,3.68,3.68,0,0,1,5.07,0L34,26.81a3.55,3.55,0,0,1,1,2.53,3.59,3.59,0,0,1-1,2.54,3.54,3.54,0,0,1-2,1,1.66,1.66,0,0,0-1.11.68,1.71,1.71,0,0,0,1.37,2.72h0a1.23,1.23,0,0,0,.27,0A7,7,0,0,0,36.4,24.39l-6.23-6.24a7,7,0,1,0-9.9,9.91l3.31,3.31A1.71,1.71,0,0,0,26,29Z"/></g></g></svg>