<svg xmlns="http://www.w3.org/2000/svg" viewBox="0 0 64 64"><defs><style>.cls-1{fill:#fff200;}.cls-2{fill:#391f1f;}</style></defs><g id="Layer_2" data-name="Layer 2"><g id="알림"><circle class="cls-1" cx="32" cy="32" r="32"/><polygon class="cls-2" points="26.59 29.48 25.23 33.48 27.93 33.48 26.62 29.48 26.59 29.48"/><path class="cls-2" d="M32,17c-10.77,0-19.5,6.51-19.5,14.54,0,5.16,3.62,9.69,9.05,12.27l-1.84,6.48a.51.51,0,0,0,.14.56.54.54,0,0,0,.39.15.61.61,0,0,0,.35-.13l7.9-5a26.86,26.86,0,0,0,3.51.24c10.76,0,19.5-6.5,19.5-14.54S42.76,17,32,17ZM21.58,36.14a1.05,1.05,0,0,1-.31.8,1.12,1.12,0,0,1-.82.3,1.23,1.23,0,0,1-.72-.22,1,1,0,0,1-.37-.6.88.88,0,0,1,0-.28v-6.9H17.22a1.5,1.5,0,0,1-.76-.19.81.81,0,0,1-.38-.54.71.71,0,0,1,0-.21.8.8,0,0,1,.33-.68,1.39,1.39,0,0,1,.83-.25H23.7a1.46,1.46,0,0,1,.75.19.87.87,0,0,1,.4.54.67.67,0,0,1,0,.2.82.82,0,0,1-.32.69,1.36,1.36,0,0,1-.83.25H21.59Zm9.28.82a1.08,1.08,0,0,1-.75.28,1,1,0,0,1-1-.6L28.52,35H24.91l-.58,1.62a1,1,0,0,1-1,.6,1,1,0,0,1-.66-.2.88.88,0,0,1-.34-.54,1.52,1.52,0,0,1,0-.23,1.27,1.27,0,0,1,.06-.39c0-.15.1-.3.15-.45l2.9-7.55a1,1,0,0,1,.41-.52,1.41,1.41,0,0,1,.69-.16H27a1.53,1.53,0,0,1,.74.17,1.08,1.08,0,0,1,.46.64L31,35.43a3.4,3.4,0,0,1,.18.59,1.57,1.57,0,0,1,0,.25A.93.93,0,0,1,30.86,37Zm7.49-.14a1.34,1.34,0,0,1-.83.25H32.84a1.55,1.55,0,0,1-.85-.21,1,1,0,0,1-.42-.65,1.88,1.88,0,0,1-.05-.43V28.3a1,1,0,0,1,.31-.79,1.09,1.09,0,0,1,.82-.31,1.21,1.21,0,0,1,.72.22,1,1,0,0,1,.37.6.88.88,0,0,1,0,.28v6.91h3.75a1.36,1.36,0,0,1,.76.19.85.85,0,0,1,.39.54l0,.2A.78.78,0,0,1,38.35,36.82Zm8.78-.71v.07a.94.94,0,0,1-.34.81,1.37,1.37,0,0,1-.81.25,1.2,1.2,0,0,1-.57-.12,1.39,1.39,0,0,1-.44-.46l-2.59-3.93L41.15,34v2.19a1.09,1.09,0,0,1-.3.8,1.14,1.14,0,0,1-.83.3,1.23,1.23,0,0,1-.72-.22,1,1,0,0,1-.37-.6.88.88,0,0,1,0-.28V28.3a1.05,1.05,0,0,1,.31-.79A1.09,1.09,0,0,1,40,27.2a1.23,1.23,0,0,1,.72.22,1,1,0,0,1,.38.6,2.64,2.64,0,0,1,0,.28v3.21l3.53-3.83a3,3,0,0,1,.43-.36.86.86,0,0,1,.47-.12,1.22,1.22,0,0,1,.67.2.81.81,0,0,1,.37.52s0,0,0,.08a.28.28,0,0,0,0,.09,1,1,0,0,1-.11.4,1.65,1.65,0,0,1-.27.35L44,31.22l2.73,4.08.08.13a2.4,2.4,0,0,1,.32.61Z"/></g></g></svg>