<svg width="16" height="16" viewBox="0 0 16 16" fill="none" xmlns="http://www.w3.org/2000/svg">
<path d="M3.64201 2.95501C4.85172 1.90679 6.39933 1.33078 8.00001 1.33301C11.682 1.33301 14.6667 4.31768 14.6667 7.99968C14.6667 9.42368 14.22 10.7437 13.46 11.8263L11.3333 7.99968H13.3333C13.3334 6.9541 13.0262 5.93155 12.4498 5.05918C11.8734 4.18682 11.0533 3.50312 10.0915 3.0931C9.12963 2.68307 8.06849 2.56482 7.03998 2.75303C6.01148 2.94124 5.06098 3.42761 4.30668 4.15168L3.64201 2.95501ZM12.358 13.0443C11.1483 14.0926 9.60069 14.6686 8.00001 14.6663C4.31801 14.6663 1.33334 11.6817 1.33334 7.99968C1.33334 6.57568 1.78001 5.25568 2.54001 4.17301L4.66668 7.99968H2.66668C2.66659 9.04526 2.97385 10.0678 3.55023 10.9402C4.12662 11.8125 4.94672 12.4962 5.90856 12.9063C6.87039 13.3163 7.93153 13.4345 8.96004 13.2463C9.98854 13.0581 10.939 12.5717 11.6933 11.8477L12.358 13.0443Z" fill="#999999"/>
</svg>
