<svg width="24" height="24" viewBox="0 0 24 24" fill="none" xmlns="http://www.w3.org/2000/svg">
<path d="M18.0308 16.617L22.3138 20.899L20.8988 22.314L16.6168 18.031C15.0236 19.3082 13.0418 20.0029 10.9998 20C6.03182 20 1.99982 15.968 1.99982 11C1.99982 6.032 6.03182 2 10.9998 2C15.9678 2 19.9998 6.032 19.9998 11C20.0027 13.042 19.308 15.0237 18.0308 16.617ZM16.0248 15.875C17.2939 14.5699 18.0027 12.8204 17.9998 11C17.9998 7.132 14.8668 4 10.9998 4C7.13182 4 3.99982 7.132 3.99982 11C3.99982 14.867 7.13182 18 10.9998 18C12.8202 18.0029 14.5697 17.2941 15.8748 16.025L16.0248 15.875Z" fill="#999999"/>
</svg>
