<svg xmlns="http://www.w3.org/2000/svg" xmlns:xlink="http://www.w3.org/1999/xlink" width="28" height="28" viewBox="0 0 28 28"><defs><style>.a{fill:#fff;}.b{fill:#0058c1;}.c{clip-path:url(#a);}</style><clipPath id="a"><rect class="a" width="14.955" height="16.801"/></clipPath></defs><g transform="translate(-71 -71)"><g transform="translate(-1375 -222)"><rect class="b" width="28" height="28" rx="5" transform="translate(1446 293)"/><g transform="translate(1452.875 298.6)"><g class="c"><path class="a" d="M5.8,4,9.591,8.619V.023L9.5.016C9.381.005,9.251,0,9.094,0H5.86A5.86,5.86,0,0,0,0,5.86v5.89a5.864,5.864,0,0,0,2.863,5.038.1.1,0,0,0,.145-.082V5.056A1.616,1.616,0,0,1,4.314,3.444,1.573,1.573,0,0,1,5.8,4"/><path class="a" d="M64.24,8.041,64.1,7.955V18a1.547,1.547,0,0,1-2.744.98l-3.874-4.739v7.839l.035.066.1.016,0,0c.128.009.261.014.395.014h3.234a5.868,5.868,0,0,0,5.861-5.861V13.077A5.887,5.887,0,0,0,64.24,8.041" transform="translate(-52.15 -7.218)"/></g></g></g></g></svg>