<svg xmlns="http://www.w3.org/2000/svg" width="32.004" height="31.998" viewBox="0 0 32.004 31.998"><g transform="translate(-603.669 -593.994)"><path d="M621.374,610.6c0,5.394-3.85,9.766-8.6,9.766s-8.6-4.373-8.6-9.766,8.6-16.1,8.6-16.1S621.374,605.207,621.374,610.6Z" fill="none" stroke="#272727" stroke-linecap="round" stroke-linejoin="round" stroke-width="1.012"/><line x2="4.129" y2="4.16" transform="translate(608.64 610.831)" fill="none" stroke="#ff3c3c" stroke-linecap="round" stroke-linejoin="round" stroke-width="1.012"/><line y1="2.88" x2="2.859" transform="translate(612.774 605.182)" fill="none" stroke="#ff3c3c" stroke-linecap="round" stroke-linejoin="round" stroke-width="1.012"/><path d="M635.167,610.6c0,5.394-3.85,9.766-8.6,9.766s-8.6-4.373-8.6-9.766,8.6-16.1,8.6-16.1S635.167,605.207,635.167,610.6Z" fill="#fff" stroke="#272727" stroke-linecap="round" stroke-linejoin="round" stroke-width="1.012"/><line x2="4.129" y2="4.16" transform="translate(622.432 610.831)" fill="none" stroke="#ff3c3c" stroke-linecap="round" stroke-linejoin="round" stroke-width="1.012"/><line y1="2.88" x2="2.859" transform="translate(626.566 605.182)" fill="none" stroke="#ff3c3c" stroke-linecap="round" stroke-linejoin="round" stroke-width="1.012"/><line y2="22.803" transform="translate(612.774 602.681)" fill="none" stroke="#272727" stroke-linecap="round" stroke-linejoin="round" stroke-width="1.016"/><line y2="22.803" transform="translate(626.566 602.681)" fill="none" stroke="#272727" stroke-linecap="round" stroke-linejoin="round" stroke-width="1.016"/></g></svg>