<svg xmlns="http://www.w3.org/2000/svg" width="19.989" height="38.012" viewBox="0 0 19.989 38.012"><g transform="translate(-629.6 -441.66)"><path d="M648.252,462.3v14.491a2.389,2.389,0,0,1-2.415,2.362H633.35a2.387,2.387,0,0,1-2.413-2.362V462.3" fill="none" stroke="#272727" stroke-linecap="round" stroke-linejoin="round" stroke-width="1.029"/><path d="M646.316,456.5a7.955,7.955,0,0,0-4.163-6.882s-.606-.643.262-3.3c.832-2.553-.431-4.015-2.691-4.125v-.019c-.047,0-.084.009-.131.009s-.083-.009-.129-.009v.019c-2.26.11-3.523,1.572-2.69,4.125.869,2.653.26,3.3.26,3.3a7.958,7.958,0,0,0-4.162,6.882" fill="none" stroke="#ff3c3c" stroke-linecap="round" stroke-linejoin="round" stroke-width="1.029"/><path d="M2.355,0H16.606a2.353,2.353,0,0,1,2.353,2.353v.7A2.352,2.352,0,0,1,16.607,5.4H2.354A2.354,2.354,0,0,1,0,3.049V2.355A2.355,2.355,0,0,1,2.355,0Z" transform="translate(630.115 457.444)" fill="none" stroke="#272727" stroke-linecap="round" stroke-linejoin="round" stroke-width="1.029"/></g></svg>