<svg xmlns="http://www.w3.org/2000/svg" width="37.996" height="32.004" viewBox="0 0 37.996 32.004"><g transform="translate(-180.059 -516.962)"><path d="M189.379,518.965a5.2,5.2,0,0,0-7.306,0,5.094,5.094,0,0,0,0,7.244,5.182,5.182,0,0,0,.6.505l7.211-7.151A5.249,5.249,0,0,0,189.379,518.965Z" fill="none" stroke="#272727" stroke-linecap="round" stroke-linejoin="round" stroke-width="1.005"/><path d="M208.736,518.965a5.193,5.193,0,0,1,7.3,0,5.094,5.094,0,0,1,0,7.244,5.182,5.182,0,0,1-.6.505l-7.209-7.151A5.052,5.052,0,0,1,208.736,518.965Z" fill="none" stroke="#272727" stroke-linecap="round" stroke-linejoin="round" stroke-width="1.005"/><path d="M212.393,535.236a13.336,13.336,0,1,1-13.337-13.227A13.282,13.282,0,0,1,212.393,535.236Z" fill="none" stroke="#272727" stroke-linecap="round" stroke-linejoin="round" stroke-width="1.005"/><path d="M199.221,526.558v8.876h-7.041" fill="none" stroke="#ff3c3c" stroke-linecap="round" stroke-linejoin="round" stroke-width="1.005"/></g></svg>