<svg xmlns="http://www.w3.org/2000/svg" width="12" height="12" viewBox="0 0 12 12">
  <path id="open" d="M420.455,607a.545.545,0,0,0-.545.545v3.818a.545.545,0,0,1-.545.546h-8.727a.545.545,0,0,1-.545-.546v-8.727a.545.545,0,0,1,.545-.545h3.818a.545.545,0,1,0,0-1.091h-3.818A1.637,1.637,0,0,0,409,602.636v8.727A1.636,1.636,0,0,0,410.636,613h8.727A1.636,1.636,0,0,0,421,611.364v-3.818A.545.545,0,0,0,420.455,607Zm.545-5.455v3.273a.545.545,0,0,1-1.091,0v-1.956l-4.469,4.469a.545.545,0,0,1-.771-.771l4.469-4.469h-1.956a.545.545,0,1,1,0-1.091h3.273A.546.546,0,0,1,421,601.545Z" transform="translate(-409 -601)" fill="#343434" opacity="0.7"/>
</svg>
