<svg xmlns="http://www.w3.org/2000/svg" width="38.038" height="28.01" viewBox="0 0 38.038 28.01"><g transform="translate(-606.596 -1450.027)"><path d="M634.553,1463.351l.133.215,1.034-1.155c2.81-3.581,1.182-8.385-2.385-10.664a7.6,7.6,0,0,0-10.546,2.412l-.7,1.128-.7-1.128a7.6,7.6,0,0,0-10.549-2.412c-3.567,2.278-4.971,7.329-2.382,10.664,0,0,1.231,1.376,2.948,3.293,3.983,4.446,10.606,11.821,10.682,11.821.054,0,3.2-3.489,6.461-7.114l-.051-.057" fill="none" stroke="#272727" stroke-linecap="round" stroke-linejoin="round" stroke-width="1.024"/><path d="M641.8,1461.889a4.61,4.61,0,0,0-6.4,1.462l-.426.686-.291-.471-.133-.215a4.611,4.611,0,0,0-6.4-1.462c-2.164,1.382-3.017,4.446-1.446,6.469,0,0,.746.835,1.789,2l.051.057c2.42,2.7,6.383,7.114,6.428,7.114s4.085-4.5,6.5-7.191l1.771-1.977C644.95,1466.185,643.963,1463.271,641.8,1461.889Z" fill="none" stroke="#ff3c3c" stroke-linecap="round" stroke-linejoin="round" stroke-width="1.024"/></g></svg>