<svg xmlns="http://www.w3.org/2000/svg" width="34.005" height="35.21" viewBox="0 0 34.005 35.21"><g transform="translate(-601.418 -279.656)"><path d="M629.72,293.585a4.4,4.4,0,0,1,3.286.689,4.35,4.35,0,0,1,1.833,2.8h0a4.367,4.367,0,0,1-3.508,5.092l-1.916.355" fill="none" stroke="#272727" stroke-linecap="round" stroke-linejoin="round" stroke-width="1.004"/><path d="M625.177,308.447a11.362,11.362,0,0,0,3.364-8.08V290.084H603.9v10.283a11.362,11.362,0,0,0,3.364,8.08" fill="none" stroke="#272727" stroke-linecap="round" stroke-linejoin="round" stroke-width="1.004"/><path d="M601.919,308.873v1.6c0,2.525,2.057,3.891,4.6,3.891h19.407c2.539,0,4.6-1.365,4.6-3.891v-1.6Z" fill="none" stroke="#ff3c3c" stroke-linecap="round" stroke-linejoin="round" stroke-width="1.004"/><path d="M611.921,280.366h0a2.247,2.247,0,0,1,0,3.19h0a2.246,2.246,0,0,0,0,3.189" fill="none" stroke="#ff3c3c" stroke-linecap="round" stroke-linejoin="round" stroke-width="1.004"/><path d="M616.315,280.366h0a2.247,2.247,0,0,1,0,3.19h0a2.246,2.246,0,0,0,0,3.189" fill="none" stroke="#ff3c3c" stroke-linecap="round" stroke-linejoin="round" stroke-width="1.004"/><path d="M620.71,280.366h0a2.247,2.247,0,0,1,0,3.19h0a2.246,2.246,0,0,0,0,3.189" fill="none" stroke="#ff3c3c" stroke-linecap="round" stroke-linejoin="round" stroke-width="1.004"/></g></svg>